<svg xmlns="http://www.w3.org/2000/svg" viewBox="0 0 1024 1024">
<defs><linearGradient id="bg" x1="0" y1="0" x2="0" y2="1"><stop stop-color="#7A4B28"/><stop offset="1" stop-color="#3B2112"/></linearGradient></defs>
<rect width="1024" height="1024" rx="170" fill="url(#bg)"/><rect x="30" y="30" width="964" height="964" rx="145" fill="none" stroke="#E9B85D" stroke-width="22"/>
<g font-family="DejaVu Sans, sans-serif" text-anchor="middle">
<g transform="translate(-20,0)"><rect x="70" y="22" width="850" height="132" rx="24" fill="#70411F" stroke="#C98B3F" stroke-width="8"/><rect x="100" y="62" width="790" height="72" rx="10" fill="#3C2113" stroke="#D7A04A" stroke-width="5"/><text x="495" y="117" font-size="43" font-weight="700" fill="#F1D18A">זרעים</text></g><g transform="translate(-12,0)"><rect x="75" y="172" width="850" height="132" rx="24" fill="#61371C" stroke="#C98B3F" stroke-width="8"/><rect x="105" y="212" width="790" height="72" rx="10" fill="#3C2113" stroke="#D7A04A" stroke-width="5"/><text x="495" y="267" font-size="43" font-weight="700" fill="#F1D18A">מועד</text></g><g transform="translate(-4,0)"><rect x="80" y="322" width="850" height="132" rx="24" fill="#774620" stroke="#C98B3F" stroke-width="8"/><rect x="110" y="362" width="790" height="72" rx="10" fill="#3C2113" stroke="#D7A04A" stroke-width="5"/><text x="495" y="417" font-size="43" font-weight="700" fill="#F1D18A">נשים</text></g><g transform="translate(4,0)"><rect x="85" y="472" width="850" height="132" rx="24" fill="#6B3A1D" stroke="#C98B3F" stroke-width="8"/><rect x="115" y="512" width="790" height="72" rx="10" fill="#3C2113" stroke="#D7A04A" stroke-width="5"/><text x="495" y="567" font-size="43" font-weight="700" fill="#F1D18A">נזיקין</text></g><g transform="translate(12,0)"><rect x="90" y="622" width="850" height="132" rx="24" fill="#5E341B" stroke="#C98B3F" stroke-width="8"/><rect x="120" y="662" width="790" height="72" rx="10" fill="#3C2113" stroke="#D7A04A" stroke-width="5"/><text x="495" y="717" font-size="43" font-weight="700" fill="#F1D18A">קדשים</text></g><g transform="translate(20,0)"><rect x="95" y="772" width="850" height="132" rx="24" fill="#774723" stroke="#C98B3F" stroke-width="8"/><rect x="125" y="812" width="790" height="72" rx="10" fill="#3C2113" stroke="#D7A04A" stroke-width="5"/><text x="495" y="867" font-size="43" font-weight="700" fill="#F1D18A">טהרות</text></g>
</g></svg>